<mxfile host="Electron" modified="2025-07-19T00:33:05.535Z" agent="Mozilla/5.0 (Windows NT 10.0; Win64; x64) AppleWebKit/537.36 (KHTML, like Gecko) draw.io/21.2.1 Chrome/112.0.5615.87 Electron/24.1.2 Safari/537.36" etag="le8tLcHAABCNPZTP4c4H" version="21.2.1" type="device">
  <diagram name="Página-1" id="7WQYzfUvT1rjio-FHltF">
    <mxGraphModel dx="3382" dy="1032" grid="1" gridSize="10" guides="1" tooltips="1" connect="1" arrows="1" fold="1" page="1" pageScale="1" pageWidth="827" pageHeight="1169" math="0" shadow="0">
      <root>
        <mxCell id="0" />
        <mxCell id="1" parent="0" />
        <mxCell id="u9sHfeIDGquyUeXgRAhM-1" value="Usuario" style="rounded=0;whiteSpace=wrap;html=1;fontStyle=1" vertex="1" parent="1">
          <mxGeometry x="-610" y="410" width="120" height="40" as="geometry" />
        </mxCell>
        <mxCell id="u9sHfeIDGquyUeXgRAhM-2" value="ID_usuario" style="ellipse;whiteSpace=wrap;html=1;fontStyle=1" vertex="1" parent="1">
          <mxGeometry x="-690" y="350" width="80" height="40" as="geometry" />
        </mxCell>
        <mxCell id="u9sHfeIDGquyUeXgRAhM-3" value="Nombre" style="ellipse;whiteSpace=wrap;html=1;fontStyle=1" vertex="1" parent="1">
          <mxGeometry x="-730" y="385" width="80" height="40" as="geometry" />
        </mxCell>
        <mxCell id="u9sHfeIDGquyUeXgRAhM-4" value="Apellido" style="ellipse;whiteSpace=wrap;html=1;fontStyle=1" vertex="1" parent="1">
          <mxGeometry x="-720" y="425" width="80" height="40" as="geometry" />
        </mxCell>
        <mxCell id="u9sHfeIDGquyUeXgRAhM-5" value="Correo Electronico" style="ellipse;whiteSpace=wrap;html=1;fontStyle=1" vertex="1" parent="1">
          <mxGeometry x="-600" y="340" width="80" height="40" as="geometry" />
        </mxCell>
        <mxCell id="u9sHfeIDGquyUeXgRAhM-6" value="Contraseña" style="ellipse;whiteSpace=wrap;html=1;fontStyle=1" vertex="1" parent="1">
          <mxGeometry x="-520" y="350" width="80" height="40" as="geometry" />
        </mxCell>
        <mxCell id="u9sHfeIDGquyUeXgRAhM-7" value="Dirección" style="ellipse;whiteSpace=wrap;html=1;fontStyle=1" vertex="1" parent="1">
          <mxGeometry x="-460" y="380" width="80" height="40" as="geometry" />
        </mxCell>
        <mxCell id="u9sHfeIDGquyUeXgRAhM-8" value="Teléfono" style="ellipse;whiteSpace=wrap;html=1;fontStyle=1" vertex="1" parent="1">
          <mxGeometry x="-450" y="428" width="80" height="40" as="geometry" />
        </mxCell>
        <mxCell id="u9sHfeIDGquyUeXgRAhM-9" value="PK" style="text;html=1;align=center;verticalAlign=middle;resizable=0;points=[];autosize=1;strokeColor=none;fillColor=none;fontStyle=1" vertex="1" parent="1">
          <mxGeometry x="-640" y="330" width="40" height="30" as="geometry" />
        </mxCell>
        <mxCell id="u9sHfeIDGquyUeXgRAhM-10" value="Producto" style="rounded=0;whiteSpace=wrap;html=1;" vertex="1" parent="1">
          <mxGeometry x="-410" y="850" width="120" height="40" as="geometry" />
        </mxCell>
        <mxCell id="u9sHfeIDGquyUeXgRAhM-11" value="ID_producto" style="ellipse;whiteSpace=wrap;html=1;" vertex="1" parent="1">
          <mxGeometry x="-500" y="800" width="80" height="40" as="geometry" />
        </mxCell>
        <mxCell id="u9sHfeIDGquyUeXgRAhM-12" value="Nombre" style="ellipse;whiteSpace=wrap;html=1;" vertex="1" parent="1">
          <mxGeometry x="-530" y="850" width="80" height="40" as="geometry" />
        </mxCell>
        <mxCell id="u9sHfeIDGquyUeXgRAhM-13" value="Descripcion" style="ellipse;whiteSpace=wrap;html=1;" vertex="1" parent="1">
          <mxGeometry x="-490" y="900" width="80" height="40" as="geometry" />
        </mxCell>
        <mxCell id="u9sHfeIDGquyUeXgRAhM-14" value="precio" style="ellipse;whiteSpace=wrap;html=1;" vertex="1" parent="1">
          <mxGeometry x="-400" y="780" width="80" height="40" as="geometry" />
        </mxCell>
        <mxCell id="u9sHfeIDGquyUeXgRAhM-15" value="Stock" style="ellipse;whiteSpace=wrap;html=1;" vertex="1" parent="1">
          <mxGeometry x="-310" y="800" width="80" height="40" as="geometry" />
        </mxCell>
        <mxCell id="u9sHfeIDGquyUeXgRAhM-16" value="Categoria" style="ellipse;whiteSpace=wrap;html=1;" vertex="1" parent="1">
          <mxGeometry x="-260" y="850" width="80" height="40" as="geometry" />
        </mxCell>
        <mxCell id="u9sHfeIDGquyUeXgRAhM-17" value="Imagen" style="ellipse;whiteSpace=wrap;html=1;" vertex="1" parent="1">
          <mxGeometry x="-300" y="900" width="80" height="40" as="geometry" />
        </mxCell>
        <mxCell id="u9sHfeIDGquyUeXgRAhM-18" value="PK" style="text;html=1;align=center;verticalAlign=middle;resizable=0;points=[];autosize=1;strokeColor=none;fillColor=none;" vertex="1" parent="1">
          <mxGeometry x="-450" y="780" width="40" height="30" as="geometry" />
        </mxCell>
        <mxCell id="u9sHfeIDGquyUeXgRAhM-19" value="FK" style="text;html=1;align=center;verticalAlign=middle;resizable=0;points=[];autosize=1;strokeColor=none;fillColor=none;" vertex="1" parent="1">
          <mxGeometry x="-200" y="828" width="40" height="30" as="geometry" />
        </mxCell>
        <mxCell id="u9sHfeIDGquyUeXgRAhM-20" value="Categoria" style="rounded=0;whiteSpace=wrap;html=1;" vertex="1" parent="1">
          <mxGeometry x="-400" y="1090" width="120" height="40" as="geometry" />
        </mxCell>
        <mxCell id="u9sHfeIDGquyUeXgRAhM-21" value="ID_categoria" style="ellipse;whiteSpace=wrap;html=1;" vertex="1" parent="1">
          <mxGeometry x="-510" y="1090" width="80" height="40" as="geometry" />
        </mxCell>
        <mxCell id="u9sHfeIDGquyUeXgRAhM-22" value="Nombre_articulo" style="ellipse;whiteSpace=wrap;html=1;" vertex="1" parent="1">
          <mxGeometry x="-385" y="1150" width="90" height="40" as="geometry" />
        </mxCell>
        <mxCell id="u9sHfeIDGquyUeXgRAhM-23" value="Descripcion" style="ellipse;whiteSpace=wrap;html=1;" vertex="1" parent="1">
          <mxGeometry x="-250" y="1090" width="80" height="40" as="geometry" />
        </mxCell>
        <mxCell id="u9sHfeIDGquyUeXgRAhM-24" value="PK" style="text;html=1;align=center;verticalAlign=middle;resizable=0;points=[];autosize=1;strokeColor=none;fillColor=none;" vertex="1" parent="1">
          <mxGeometry x="-460" y="1070" width="40" height="30" as="geometry" />
        </mxCell>
        <mxCell id="u9sHfeIDGquyUeXgRAhM-25" value="" style="rhombus;whiteSpace=wrap;html=1;" vertex="1" parent="1">
          <mxGeometry x="-385" y="960" width="70" height="70" as="geometry" />
        </mxCell>
        <mxCell id="u9sHfeIDGquyUeXgRAhM-26" value="Carrito" style="rounded=0;whiteSpace=wrap;html=1;fontStyle=1" vertex="1" parent="1">
          <mxGeometry x="-610" y="650" width="120" height="40" as="geometry" />
        </mxCell>
        <mxCell id="u9sHfeIDGquyUeXgRAhM-27" value="ID_Carrito" style="ellipse;whiteSpace=wrap;html=1;fontStyle=1" vertex="1" parent="1">
          <mxGeometry x="-710" y="650" width="80" height="40" as="geometry" />
        </mxCell>
        <mxCell id="u9sHfeIDGquyUeXgRAhM-28" value="Fecha_Creación" style="ellipse;whiteSpace=wrap;html=1;fontStyle=1" vertex="1" parent="1">
          <mxGeometry x="-600" y="700" width="100" height="40" as="geometry" />
        </mxCell>
        <mxCell id="u9sHfeIDGquyUeXgRAhM-29" value="ID_usuario" style="ellipse;whiteSpace=wrap;html=1;fontStyle=1" vertex="1" parent="1">
          <mxGeometry x="-470" y="650" width="80" height="40" as="geometry" />
        </mxCell>
        <mxCell id="u9sHfeIDGquyUeXgRAhM-30" value="PK" style="text;html=1;align=center;verticalAlign=middle;resizable=0;points=[];autosize=1;strokeColor=none;fillColor=none;fontStyle=1" vertex="1" parent="1">
          <mxGeometry x="-650" y="620" width="40" height="30" as="geometry" />
        </mxCell>
        <mxCell id="u9sHfeIDGquyUeXgRAhM-31" value="FK" style="text;html=1;align=center;verticalAlign=middle;resizable=0;points=[];autosize=1;strokeColor=none;fillColor=none;" vertex="1" parent="1">
          <mxGeometry x="-420" y="620" width="40" height="30" as="geometry" />
        </mxCell>
        <mxCell id="u9sHfeIDGquyUeXgRAhM-32" value="" style="rhombus;whiteSpace=wrap;html=1;" vertex="1" parent="1">
          <mxGeometry x="-590" y="510" width="70" height="70" as="geometry" />
        </mxCell>
        <mxCell id="u9sHfeIDGquyUeXgRAhM-33" value="Detalle_carrito" style="rounded=0;whiteSpace=wrap;html=1;fontStyle=1" vertex="1" parent="1">
          <mxGeometry x="-900" y="850" width="120" height="40" as="geometry" />
        </mxCell>
        <mxCell id="u9sHfeIDGquyUeXgRAhM-34" value="ID_detalle" style="ellipse;whiteSpace=wrap;html=1;fontStyle=1" vertex="1" parent="1">
          <mxGeometry x="-960" y="900" width="80" height="40" as="geometry" />
        </mxCell>
        <mxCell id="u9sHfeIDGquyUeXgRAhM-35" value="ID_Producto" style="ellipse;whiteSpace=wrap;html=1;fontStyle=1" vertex="1" parent="1">
          <mxGeometry x="-1000" y="850" width="80" height="40" as="geometry" />
        </mxCell>
        <mxCell id="u9sHfeIDGquyUeXgRAhM-36" value="Subtotal" style="ellipse;whiteSpace=wrap;html=1;fontStyle=1" vertex="1" parent="1">
          <mxGeometry x="-870" y="920" width="80" height="40" as="geometry" />
        </mxCell>
        <mxCell id="u9sHfeIDGquyUeXgRAhM-37" value="ID_Carrito" style="ellipse;whiteSpace=wrap;html=1;fontStyle=1" vertex="1" parent="1">
          <mxGeometry x="-770" y="900" width="80" height="40" as="geometry" />
        </mxCell>
        <mxCell id="u9sHfeIDGquyUeXgRAhM-38" value="Cantidad" style="ellipse;whiteSpace=wrap;html=1;fontStyle=1" vertex="1" parent="1">
          <mxGeometry x="-770" y="850" width="80" height="40" as="geometry" />
        </mxCell>
        <mxCell id="u9sHfeIDGquyUeXgRAhM-39" value="PK" style="text;html=1;align=center;verticalAlign=middle;resizable=0;points=[];autosize=1;strokeColor=none;fillColor=none;fontStyle=1" vertex="1" parent="1">
          <mxGeometry x="-980" y="925" width="40" height="30" as="geometry" />
        </mxCell>
        <mxCell id="u9sHfeIDGquyUeXgRAhM-40" value="FK" style="text;html=1;align=center;verticalAlign=middle;resizable=0;points=[];autosize=1;strokeColor=none;fillColor=none;" vertex="1" parent="1">
          <mxGeometry x="-940" y="832" width="40" height="30" as="geometry" />
        </mxCell>
        <mxCell id="u9sHfeIDGquyUeXgRAhM-41" value="FK" style="text;html=1;align=center;verticalAlign=middle;resizable=0;points=[];autosize=1;strokeColor=none;fillColor=none;" vertex="1" parent="1">
          <mxGeometry x="-700" y="890" width="40" height="30" as="geometry" />
        </mxCell>
        <mxCell id="u9sHfeIDGquyUeXgRAhM-42" value="" style="rhombus;whiteSpace=wrap;html=1;" vertex="1" parent="1">
          <mxGeometry x="-789" y="730" width="70" height="70" as="geometry" />
        </mxCell>
        <mxCell id="u9sHfeIDGquyUeXgRAhM-43" value="Pedido" style="rounded=0;whiteSpace=wrap;html=1;fontStyle=1" vertex="1" parent="1">
          <mxGeometry x="-180" y="650" width="120" height="40" as="geometry" />
        </mxCell>
        <mxCell id="u9sHfeIDGquyUeXgRAhM-44" value="ID_Pedido" style="ellipse;whiteSpace=wrap;html=1;fontStyle=1" vertex="1" parent="1">
          <mxGeometry x="-285" y="660" width="80" height="40" as="geometry" />
        </mxCell>
        <mxCell id="u9sHfeIDGquyUeXgRAhM-45" value="Estado" style="ellipse;whiteSpace=wrap;html=1;fontStyle=1" vertex="1" parent="1">
          <mxGeometry x="-85" y="710" width="80" height="40" as="geometry" />
        </mxCell>
        <mxCell id="u9sHfeIDGquyUeXgRAhM-46" value="Fecha" style="ellipse;whiteSpace=wrap;html=1;fontStyle=1" vertex="1" parent="1">
          <mxGeometry x="-200" y="710" width="80" height="40" as="geometry" />
        </mxCell>
        <mxCell id="u9sHfeIDGquyUeXgRAhM-47" value="ID_Usuario" style="ellipse;whiteSpace=wrap;html=1;fontStyle=1" vertex="1" parent="1">
          <mxGeometry x="-111" y="602" width="80" height="40" as="geometry" />
        </mxCell>
        <mxCell id="u9sHfeIDGquyUeXgRAhM-48" value="Monto_Total" style="ellipse;whiteSpace=wrap;html=1;fontStyle=1" vertex="1" parent="1">
          <mxGeometry x="-30" y="660" width="80" height="40" as="geometry" />
        </mxCell>
        <mxCell id="u9sHfeIDGquyUeXgRAhM-49" value="PK" style="text;html=1;align=center;verticalAlign=middle;resizable=0;points=[];autosize=1;strokeColor=none;fillColor=none;fontStyle=1" vertex="1" parent="1">
          <mxGeometry x="-220" y="650" width="40" height="30" as="geometry" />
        </mxCell>
        <mxCell id="u9sHfeIDGquyUeXgRAhM-50" value="FK" style="text;html=1;align=center;verticalAlign=middle;resizable=0;points=[];autosize=1;strokeColor=none;fillColor=none;" vertex="1" parent="1">
          <mxGeometry x="-60" y="580" width="40" height="30" as="geometry" />
        </mxCell>
        <mxCell id="u9sHfeIDGquyUeXgRAhM-51" value="" style="rhombus;whiteSpace=wrap;html=1;" vertex="1" parent="1">
          <mxGeometry x="-370" y="510" width="70" height="70" as="geometry" />
        </mxCell>
        <mxCell id="u9sHfeIDGquyUeXgRAhM-52" value="(Pendiente, enviado, cancelado)" style="text;html=1;align=center;verticalAlign=middle;resizable=0;points=[];autosize=1;strokeColor=none;fillColor=none;" vertex="1" parent="1">
          <mxGeometry x="-80" y="750" width="200" height="30" as="geometry" />
        </mxCell>
        <mxCell id="u9sHfeIDGquyUeXgRAhM-53" value="Detalle_Pedido" style="rounded=0;whiteSpace=wrap;html=1;" vertex="1" parent="1">
          <mxGeometry x="40" y="870" width="120" height="40" as="geometry" />
        </mxCell>
        <mxCell id="u9sHfeIDGquyUeXgRAhM-54" value="ID_DetallePedido" style="ellipse;whiteSpace=wrap;html=1;" vertex="1" parent="1">
          <mxGeometry x="-75" y="840" width="105" height="40" as="geometry" />
        </mxCell>
        <mxCell id="u9sHfeIDGquyUeXgRAhM-55" value="Cantidad" style="ellipse;whiteSpace=wrap;html=1;" vertex="1" parent="1">
          <mxGeometry x="140" y="930" width="80" height="40" as="geometry" />
        </mxCell>
        <mxCell id="u9sHfeIDGquyUeXgRAhM-56" value="Precio_unitario" style="ellipse;whiteSpace=wrap;html=1;" vertex="1" parent="1">
          <mxGeometry x="50" y="940" width="85" height="40" as="geometry" />
        </mxCell>
        <mxCell id="u9sHfeIDGquyUeXgRAhM-57" value="ID_Producto" style="ellipse;whiteSpace=wrap;html=1;" vertex="1" parent="1">
          <mxGeometry x="60" y="820" width="80" height="40" as="geometry" />
        </mxCell>
        <mxCell id="u9sHfeIDGquyUeXgRAhM-58" value="ID_Pedido" style="ellipse;whiteSpace=wrap;html=1;" vertex="1" parent="1">
          <mxGeometry x="170" y="840" width="80" height="40" as="geometry" />
        </mxCell>
        <mxCell id="u9sHfeIDGquyUeXgRAhM-59" value="Subtotal" style="ellipse;whiteSpace=wrap;html=1;" vertex="1" parent="1">
          <mxGeometry x="180" y="890" width="80" height="40" as="geometry" />
        </mxCell>
        <mxCell id="u9sHfeIDGquyUeXgRAhM-60" value="PK" style="text;html=1;align=center;verticalAlign=middle;resizable=0;points=[];autosize=1;strokeColor=none;fillColor=none;" vertex="1" parent="1">
          <mxGeometry y="822" width="40" height="30" as="geometry" />
        </mxCell>
        <mxCell id="u9sHfeIDGquyUeXgRAhM-61" value="FK" style="text;html=1;align=center;verticalAlign=middle;resizable=0;points=[];autosize=1;strokeColor=none;fillColor=none;" vertex="1" parent="1">
          <mxGeometry x="225" y="820" width="40" height="30" as="geometry" />
        </mxCell>
        <mxCell id="u9sHfeIDGquyUeXgRAhM-62" value="FK" style="text;html=1;align=center;verticalAlign=middle;resizable=0;points=[];autosize=1;strokeColor=none;fillColor=none;" vertex="1" parent="1">
          <mxGeometry x="125" y="800" width="40" height="30" as="geometry" />
        </mxCell>
        <mxCell id="u9sHfeIDGquyUeXgRAhM-63" value="" style="rhombus;whiteSpace=wrap;html=1;" vertex="1" parent="1">
          <mxGeometry x="-145" y="777" width="70" height="70" as="geometry" />
        </mxCell>
        <mxCell id="u9sHfeIDGquyUeXgRAhM-64" value="" style="rhombus;whiteSpace=wrap;html=1;" vertex="1" parent="1">
          <mxGeometry x="-160" y="950" width="70" height="70" as="geometry" />
        </mxCell>
        <mxCell id="u9sHfeIDGquyUeXgRAhM-65" value="1...1" style="text;html=1;align=center;verticalAlign=middle;resizable=0;points=[];autosize=1;strokeColor=none;fillColor=none;" vertex="1" parent="1">
          <mxGeometry x="-610" y="450" width="50" height="30" as="geometry" />
        </mxCell>
        <mxCell id="u9sHfeIDGquyUeXgRAhM-66" value="1...1" style="text;html=1;align=center;verticalAlign=middle;resizable=0;points=[];autosize=1;strokeColor=none;fillColor=none;" vertex="1" parent="1">
          <mxGeometry x="-615" y="618" width="50" height="30" as="geometry" />
        </mxCell>
        <mxCell id="u9sHfeIDGquyUeXgRAhM-67" value="1...1" style="text;html=1;align=center;verticalAlign=middle;resizable=0;points=[];autosize=1;strokeColor=none;fillColor=none;" vertex="1" parent="1">
          <mxGeometry x="-530" y="530" width="50" height="30" as="geometry" />
        </mxCell>
        <mxCell id="u9sHfeIDGquyUeXgRAhM-68" value="1...M" style="text;html=1;align=center;verticalAlign=middle;resizable=0;points=[];autosize=1;strokeColor=none;fillColor=none;" vertex="1" parent="1">
          <mxGeometry x="-335" y="468" width="50" height="30" as="geometry" />
        </mxCell>
        <mxCell id="u9sHfeIDGquyUeXgRAhM-69" value="1...1" style="text;html=1;align=center;verticalAlign=middle;resizable=0;points=[];autosize=1;strokeColor=none;fillColor=none;" vertex="1" parent="1">
          <mxGeometry x="-170" y="620" width="50" height="30" as="geometry" />
        </mxCell>
        <mxCell id="u9sHfeIDGquyUeXgRAhM-70" value="1...M" style="text;html=1;align=center;verticalAlign=middle;resizable=0;points=[];autosize=1;strokeColor=none;fillColor=none;" vertex="1" parent="1">
          <mxGeometry x="-310" y="530" width="50" height="30" as="geometry" />
        </mxCell>
        <mxCell id="u9sHfeIDGquyUeXgRAhM-71" value="1...1" style="text;html=1;align=center;verticalAlign=middle;resizable=0;points=[];autosize=1;strokeColor=none;fillColor=none;" vertex="1" parent="1">
          <mxGeometry x="-10" y="890" width="50" height="30" as="geometry" />
        </mxCell>
        <mxCell id="u9sHfeIDGquyUeXgRAhM-72" value="1...M" style="text;html=1;align=center;verticalAlign=middle;resizable=0;points=[];autosize=1;strokeColor=none;fillColor=none;" vertex="1" parent="1">
          <mxGeometry x="-410" y="825" width="50" height="30" as="geometry" />
        </mxCell>
        <mxCell id="u9sHfeIDGquyUeXgRAhM-73" value="1...M" style="text;html=1;align=center;verticalAlign=middle;resizable=0;points=[];autosize=1;strokeColor=none;fillColor=none;" vertex="1" parent="1">
          <mxGeometry x="-325" y="1058" width="50" height="30" as="geometry" />
        </mxCell>
        <mxCell id="u9sHfeIDGquyUeXgRAhM-74" value="M...M" style="text;html=1;align=center;verticalAlign=middle;resizable=0;points=[];autosize=1;strokeColor=none;fillColor=none;" vertex="1" parent="1">
          <mxGeometry x="-320" y="980" width="50" height="30" as="geometry" />
        </mxCell>
        <mxCell id="u9sHfeIDGquyUeXgRAhM-75" value="1...M" style="text;html=1;align=center;verticalAlign=middle;resizable=0;points=[];autosize=1;strokeColor=none;fillColor=none;" vertex="1" parent="1">
          <mxGeometry x="-835" y="828" width="50" height="30" as="geometry" />
        </mxCell>
        <mxCell id="u9sHfeIDGquyUeXgRAhM-76" value="M...M" style="text;html=1;align=center;verticalAlign=middle;resizable=0;points=[];autosize=1;strokeColor=none;fillColor=none;" vertex="1" parent="1">
          <mxGeometry x="-580" y="980" width="50" height="30" as="geometry" />
        </mxCell>
        <mxCell id="u9sHfeIDGquyUeXgRAhM-77" value="" style="endArrow=none;html=1;rounded=0;" edge="1" parent="1" target="u9sHfeIDGquyUeXgRAhM-20">
          <mxGeometry width="50" height="50" relative="1" as="geometry">
            <mxPoint x="-430" y="1110" as="sourcePoint" />
            <mxPoint x="-380" y="1060" as="targetPoint" />
          </mxGeometry>
        </mxCell>
        <mxCell id="u9sHfeIDGquyUeXgRAhM-78" value="" style="endArrow=none;html=1;rounded=0;entryX=0.5;entryY=1;entryDx=0;entryDy=0;" edge="1" parent="1" target="u9sHfeIDGquyUeXgRAhM-20">
          <mxGeometry width="50" height="50" relative="1" as="geometry">
            <mxPoint x="-340" y="1150" as="sourcePoint" />
            <mxPoint x="-290" y="1100" as="targetPoint" />
          </mxGeometry>
        </mxCell>
        <mxCell id="u9sHfeIDGquyUeXgRAhM-79" value="" style="endArrow=none;html=1;rounded=0;entryX=1;entryY=0.5;entryDx=0;entryDy=0;" edge="1" parent="1" target="u9sHfeIDGquyUeXgRAhM-20">
          <mxGeometry width="50" height="50" relative="1" as="geometry">
            <mxPoint x="-250" y="1110" as="sourcePoint" />
            <mxPoint x="-200" y="1060" as="targetPoint" />
          </mxGeometry>
        </mxCell>
        <mxCell id="u9sHfeIDGquyUeXgRAhM-80" value="" style="endArrow=none;html=1;rounded=0;entryX=0.5;entryY=1;entryDx=0;entryDy=0;" edge="1" parent="1" target="u9sHfeIDGquyUeXgRAhM-10">
          <mxGeometry width="50" height="50" relative="1" as="geometry">
            <mxPoint x="-350" y="960" as="sourcePoint" />
            <mxPoint x="-300" y="910" as="targetPoint" />
          </mxGeometry>
        </mxCell>
        <mxCell id="u9sHfeIDGquyUeXgRAhM-81" value="" style="endArrow=none;html=1;rounded=0;entryX=0.419;entryY=-0.067;entryDx=0;entryDy=0;entryPerimeter=0;" edge="1" parent="1" target="u9sHfeIDGquyUeXgRAhM-20">
          <mxGeometry width="50" height="50" relative="1" as="geometry">
            <mxPoint x="-350" y="1030" as="sourcePoint" />
            <mxPoint x="-300" y="980" as="targetPoint" />
          </mxGeometry>
        </mxCell>
        <mxCell id="u9sHfeIDGquyUeXgRAhM-82" value="" style="endArrow=none;html=1;rounded=0;entryX=0;entryY=0.835;entryDx=0;entryDy=0;exitX=0.368;exitY=1.113;exitDx=0;exitDy=0;exitPerimeter=0;entryPerimeter=0;" edge="1" parent="1" source="u9sHfeIDGquyUeXgRAhM-49" target="u9sHfeIDGquyUeXgRAhM-43">
          <mxGeometry width="50" height="50" relative="1" as="geometry">
            <mxPoint x="-200" y="690" as="sourcePoint" />
            <mxPoint x="-150" y="640" as="targetPoint" />
          </mxGeometry>
        </mxCell>
        <mxCell id="u9sHfeIDGquyUeXgRAhM-83" value="" style="endArrow=none;html=1;rounded=0;entryX=0.158;entryY=1.027;entryDx=0;entryDy=0;entryPerimeter=0;" edge="1" parent="1" target="u9sHfeIDGquyUeXgRAhM-43">
          <mxGeometry width="50" height="50" relative="1" as="geometry">
            <mxPoint x="-160" y="710" as="sourcePoint" />
            <mxPoint x="-110" y="660" as="targetPoint" />
            <Array as="points">
              <mxPoint x="-160" y="691" />
            </Array>
          </mxGeometry>
        </mxCell>
        <mxCell id="u9sHfeIDGquyUeXgRAhM-84" value="" style="endArrow=none;html=1;rounded=0;exitX=0.209;exitY=0.112;exitDx=0;exitDy=0;exitPerimeter=0;entryX=0.835;entryY=0.995;entryDx=0;entryDy=0;entryPerimeter=0;" edge="1" parent="1" source="u9sHfeIDGquyUeXgRAhM-45" target="u9sHfeIDGquyUeXgRAhM-43">
          <mxGeometry width="50" height="50" relative="1" as="geometry">
            <mxPoint x="-60" y="720" as="sourcePoint" />
            <mxPoint x="-10" y="670" as="targetPoint" />
          </mxGeometry>
        </mxCell>
        <mxCell id="u9sHfeIDGquyUeXgRAhM-85" value="" style="endArrow=none;html=1;rounded=0;entryX=1;entryY=0.75;entryDx=0;entryDy=0;" edge="1" parent="1" target="u9sHfeIDGquyUeXgRAhM-43">
          <mxGeometry width="50" height="50" relative="1" as="geometry">
            <mxPoint x="-30" y="680" as="sourcePoint" />
            <mxPoint x="20" y="630" as="targetPoint" />
          </mxGeometry>
        </mxCell>
        <mxCell id="u9sHfeIDGquyUeXgRAhM-86" value="" style="endArrow=none;html=1;rounded=0;entryX=0.63;entryY=0.016;entryDx=0;entryDy=0;entryPerimeter=0;" edge="1" parent="1" target="u9sHfeIDGquyUeXgRAhM-43">
          <mxGeometry width="50" height="50" relative="1" as="geometry">
            <mxPoint x="-90" y="640" as="sourcePoint" />
            <mxPoint x="-40" y="590" as="targetPoint" />
          </mxGeometry>
        </mxCell>
        <mxCell id="u9sHfeIDGquyUeXgRAhM-87" value="" style="endArrow=none;html=1;rounded=0;entryX=0.06;entryY=-0.003;entryDx=0;entryDy=0;entryPerimeter=0;" edge="1" parent="1" target="u9sHfeIDGquyUeXgRAhM-53">
          <mxGeometry width="50" height="50" relative="1" as="geometry">
            <mxPoint x="30" y="860" as="sourcePoint" />
            <mxPoint x="80" y="810" as="targetPoint" />
          </mxGeometry>
        </mxCell>
        <mxCell id="u9sHfeIDGquyUeXgRAhM-88" value="" style="endArrow=none;html=1;rounded=0;entryX=0.5;entryY=0;entryDx=0;entryDy=0;" edge="1" parent="1" target="u9sHfeIDGquyUeXgRAhM-53">
          <mxGeometry width="50" height="50" relative="1" as="geometry">
            <mxPoint x="100" y="860" as="sourcePoint" />
            <mxPoint x="150" y="810" as="targetPoint" />
          </mxGeometry>
        </mxCell>
        <mxCell id="u9sHfeIDGquyUeXgRAhM-89" value="" style="endArrow=none;html=1;rounded=0;entryX=0.902;entryY=-0.011;entryDx=0;entryDy=0;entryPerimeter=0;" edge="1" parent="1" target="u9sHfeIDGquyUeXgRAhM-53">
          <mxGeometry width="50" height="50" relative="1" as="geometry">
            <mxPoint x="170" y="860" as="sourcePoint" />
            <mxPoint x="220" y="820" as="targetPoint" />
            <Array as="points" />
          </mxGeometry>
        </mxCell>
        <mxCell id="u9sHfeIDGquyUeXgRAhM-90" value="" style="endArrow=none;html=1;rounded=0;entryX=0.417;entryY=1;entryDx=0;entryDy=0;entryPerimeter=0;" edge="1" parent="1" target="u9sHfeIDGquyUeXgRAhM-53">
          <mxGeometry width="50" height="50" relative="1" as="geometry">
            <mxPoint x="90" y="940" as="sourcePoint" />
            <mxPoint x="140" y="890" as="targetPoint" />
          </mxGeometry>
        </mxCell>
        <mxCell id="u9sHfeIDGquyUeXgRAhM-91" value="" style="endArrow=none;html=1;rounded=0;entryX=0.75;entryY=1;entryDx=0;entryDy=0;exitX=0.226;exitY=0.122;exitDx=0;exitDy=0;exitPerimeter=0;" edge="1" parent="1" source="u9sHfeIDGquyUeXgRAhM-55" target="u9sHfeIDGquyUeXgRAhM-53">
          <mxGeometry width="50" height="50" relative="1" as="geometry">
            <mxPoint x="160" y="930" as="sourcePoint" />
            <mxPoint x="210" y="880" as="targetPoint" />
          </mxGeometry>
        </mxCell>
        <mxCell id="u9sHfeIDGquyUeXgRAhM-92" value="" style="endArrow=none;html=1;rounded=0;entryX=1.027;entryY=0.835;entryDx=0;entryDy=0;entryPerimeter=0;" edge="1" parent="1" target="u9sHfeIDGquyUeXgRAhM-53">
          <mxGeometry width="50" height="50" relative="1" as="geometry">
            <mxPoint x="180" y="910" as="sourcePoint" />
            <mxPoint x="230" y="860" as="targetPoint" />
            <Array as="points">
              <mxPoint x="160" y="900" />
            </Array>
          </mxGeometry>
        </mxCell>
        <mxCell id="u9sHfeIDGquyUeXgRAhM-93" value="" style="endArrow=none;html=1;rounded=0;entryX=0;entryY=0.5;entryDx=0;entryDy=0;" edge="1" parent="1" target="u9sHfeIDGquyUeXgRAhM-33">
          <mxGeometry width="50" height="50" relative="1" as="geometry">
            <mxPoint x="-920" y="870" as="sourcePoint" />
            <mxPoint x="-870" y="820" as="targetPoint" />
          </mxGeometry>
        </mxCell>
        <mxCell id="u9sHfeIDGquyUeXgRAhM-94" value="" style="endArrow=none;html=1;rounded=0;entryX=0.25;entryY=1;entryDx=0;entryDy=0;" edge="1" parent="1" target="u9sHfeIDGquyUeXgRAhM-33">
          <mxGeometry width="50" height="50" relative="1" as="geometry">
            <mxPoint x="-890" y="910" as="sourcePoint" />
            <mxPoint x="-840" y="860" as="targetPoint" />
          </mxGeometry>
        </mxCell>
        <mxCell id="u9sHfeIDGquyUeXgRAhM-95" value="" style="endArrow=none;html=1;rounded=0;entryX=0.576;entryY=1.048;entryDx=0;entryDy=0;entryPerimeter=0;" edge="1" parent="1" target="u9sHfeIDGquyUeXgRAhM-33">
          <mxGeometry width="50" height="50" relative="1" as="geometry">
            <mxPoint x="-830" y="920" as="sourcePoint" />
            <mxPoint x="-780" y="870" as="targetPoint" />
          </mxGeometry>
        </mxCell>
        <mxCell id="u9sHfeIDGquyUeXgRAhM-96" value="" style="endArrow=none;html=1;rounded=0;entryX=0.849;entryY=1.005;entryDx=0;entryDy=0;entryPerimeter=0;exitX=0.048;exitY=0.319;exitDx=0;exitDy=0;exitPerimeter=0;" edge="1" parent="1" source="u9sHfeIDGquyUeXgRAhM-37" target="u9sHfeIDGquyUeXgRAhM-33">
          <mxGeometry width="50" height="50" relative="1" as="geometry">
            <mxPoint x="-770" y="910" as="sourcePoint" />
            <mxPoint x="-720" y="860" as="targetPoint" />
          </mxGeometry>
        </mxCell>
        <mxCell id="u9sHfeIDGquyUeXgRAhM-97" value="" style="endArrow=none;html=1;rounded=0;entryX=1;entryY=0.5;entryDx=0;entryDy=0;" edge="1" parent="1" target="u9sHfeIDGquyUeXgRAhM-33">
          <mxGeometry width="50" height="50" relative="1" as="geometry">
            <mxPoint x="-770" y="870" as="sourcePoint" />
            <mxPoint x="-720" y="820" as="targetPoint" />
          </mxGeometry>
        </mxCell>
        <mxCell id="u9sHfeIDGquyUeXgRAhM-98" value="" style="endArrow=none;html=1;rounded=0;" edge="1" parent="1" target="u9sHfeIDGquyUeXgRAhM-26">
          <mxGeometry width="50" height="50" relative="1" as="geometry">
            <mxPoint x="-630" y="670" as="sourcePoint" />
            <mxPoint x="-580" y="620" as="targetPoint" />
          </mxGeometry>
        </mxCell>
        <mxCell id="u9sHfeIDGquyUeXgRAhM-99" value="" style="endArrow=none;html=1;rounded=0;entryX=0.5;entryY=1;entryDx=0;entryDy=0;" edge="1" parent="1" target="u9sHfeIDGquyUeXgRAhM-26">
          <mxGeometry width="50" height="50" relative="1" as="geometry">
            <mxPoint x="-550" y="700" as="sourcePoint" />
            <mxPoint x="-500" y="650" as="targetPoint" />
          </mxGeometry>
        </mxCell>
        <mxCell id="u9sHfeIDGquyUeXgRAhM-100" value="" style="endArrow=none;html=1;rounded=0;entryX=0;entryY=0.5;entryDx=0;entryDy=0;" edge="1" parent="1" target="u9sHfeIDGquyUeXgRAhM-29">
          <mxGeometry width="50" height="50" relative="1" as="geometry">
            <mxPoint x="-490" y="670" as="sourcePoint" />
            <mxPoint x="-440" y="620" as="targetPoint" />
          </mxGeometry>
        </mxCell>
        <mxCell id="u9sHfeIDGquyUeXgRAhM-101" value="" style="endArrow=none;html=1;rounded=0;entryX=0.104;entryY=0.996;entryDx=0;entryDy=0;entryPerimeter=0;" edge="1" parent="1" target="u9sHfeIDGquyUeXgRAhM-10">
          <mxGeometry width="50" height="50" relative="1" as="geometry">
            <mxPoint x="-420" y="910" as="sourcePoint" />
            <mxPoint x="-370" y="860" as="targetPoint" />
          </mxGeometry>
        </mxCell>
        <mxCell id="u9sHfeIDGquyUeXgRAhM-102" value="" style="endArrow=none;html=1;rounded=0;entryX=0;entryY=0.5;entryDx=0;entryDy=0;" edge="1" parent="1" target="u9sHfeIDGquyUeXgRAhM-10">
          <mxGeometry width="50" height="50" relative="1" as="geometry">
            <mxPoint x="-450" y="870" as="sourcePoint" />
            <mxPoint x="-400" y="820" as="targetPoint" />
          </mxGeometry>
        </mxCell>
        <mxCell id="u9sHfeIDGquyUeXgRAhM-103" value="" style="endArrow=none;html=1;rounded=0;exitX=1;exitY=1;exitDx=0;exitDy=0;entryX=-0.002;entryY=0.878;entryDx=0;entryDy=0;entryPerimeter=0;" edge="1" parent="1" source="u9sHfeIDGquyUeXgRAhM-11" target="u9sHfeIDGquyUeXgRAhM-72">
          <mxGeometry width="50" height="50" relative="1" as="geometry">
            <mxPoint x="-420" y="830" as="sourcePoint" />
            <mxPoint x="-370" y="780" as="targetPoint" />
          </mxGeometry>
        </mxCell>
        <mxCell id="u9sHfeIDGquyUeXgRAhM-104" value="" style="endArrow=none;html=1;rounded=0;entryX=0.419;entryY=-0.022;entryDx=0;entryDy=0;entryPerimeter=0;" edge="1" parent="1" target="u9sHfeIDGquyUeXgRAhM-10">
          <mxGeometry width="50" height="50" relative="1" as="geometry">
            <mxPoint x="-360" y="820" as="sourcePoint" />
            <mxPoint x="-310" y="770" as="targetPoint" />
          </mxGeometry>
        </mxCell>
        <mxCell id="u9sHfeIDGquyUeXgRAhM-105" value="" style="endArrow=none;html=1;rounded=0;entryX=0.833;entryY=0;entryDx=0;entryDy=0;entryPerimeter=0;exitX=0;exitY=1;exitDx=0;exitDy=0;" edge="1" parent="1" source="u9sHfeIDGquyUeXgRAhM-15" target="u9sHfeIDGquyUeXgRAhM-10">
          <mxGeometry width="50" height="50" relative="1" as="geometry">
            <mxPoint x="-290" y="840" as="sourcePoint" />
            <mxPoint x="-240" y="790" as="targetPoint" />
          </mxGeometry>
        </mxCell>
        <mxCell id="u9sHfeIDGquyUeXgRAhM-106" value="" style="endArrow=none;html=1;rounded=0;" edge="1" parent="1" target="u9sHfeIDGquyUeXgRAhM-16">
          <mxGeometry width="50" height="50" relative="1" as="geometry">
            <mxPoint x="-290" y="870" as="sourcePoint" />
            <mxPoint x="-240" y="820" as="targetPoint" />
          </mxGeometry>
        </mxCell>
        <mxCell id="u9sHfeIDGquyUeXgRAhM-107" value="" style="endArrow=none;html=1;rounded=0;entryX=0.75;entryY=1;entryDx=0;entryDy=0;" edge="1" parent="1" target="u9sHfeIDGquyUeXgRAhM-10">
          <mxGeometry width="50" height="50" relative="1" as="geometry">
            <mxPoint x="-290" y="910" as="sourcePoint" />
            <mxPoint x="-240" y="860" as="targetPoint" />
          </mxGeometry>
        </mxCell>
        <mxCell id="u9sHfeIDGquyUeXgRAhM-108" value="" style="endArrow=none;html=1;rounded=0;entryX=0;entryY=0.75;entryDx=0;entryDy=0;" edge="1" parent="1" target="u9sHfeIDGquyUeXgRAhM-1">
          <mxGeometry width="50" height="50" relative="1" as="geometry">
            <mxPoint x="-640" y="450" as="sourcePoint" />
            <mxPoint x="-590" y="400" as="targetPoint" />
          </mxGeometry>
        </mxCell>
        <mxCell id="u9sHfeIDGquyUeXgRAhM-109" value="" style="endArrow=none;html=1;rounded=0;entryX=0;entryY=0;entryDx=0;entryDy=0;" edge="1" parent="1" target="u9sHfeIDGquyUeXgRAhM-1">
          <mxGeometry width="50" height="50" relative="1" as="geometry">
            <mxPoint x="-650" y="410" as="sourcePoint" />
            <mxPoint x="-600" y="360" as="targetPoint" />
          </mxGeometry>
        </mxCell>
        <mxCell id="u9sHfeIDGquyUeXgRAhM-110" value="" style="endArrow=none;html=1;rounded=0;exitX=1;exitY=1;exitDx=0;exitDy=0;" edge="1" parent="1" source="u9sHfeIDGquyUeXgRAhM-2" target="u9sHfeIDGquyUeXgRAhM-1">
          <mxGeometry width="50" height="50" relative="1" as="geometry">
            <mxPoint x="-620" y="380" as="sourcePoint" />
            <mxPoint x="-570" y="330" as="targetPoint" />
          </mxGeometry>
        </mxCell>
        <mxCell id="u9sHfeIDGquyUeXgRAhM-111" value="" style="endArrow=none;html=1;rounded=0;entryX=0.373;entryY=0.043;entryDx=0;entryDy=0;entryPerimeter=0;" edge="1" parent="1" target="u9sHfeIDGquyUeXgRAhM-1">
          <mxGeometry width="50" height="50" relative="1" as="geometry">
            <mxPoint x="-565" y="380" as="sourcePoint" />
            <mxPoint x="-515" y="330" as="targetPoint" />
          </mxGeometry>
        </mxCell>
        <mxCell id="u9sHfeIDGquyUeXgRAhM-112" value="" style="endArrow=none;html=1;rounded=0;entryX=0.813;entryY=0.025;entryDx=0;entryDy=0;entryPerimeter=0;" edge="1" parent="1" target="u9sHfeIDGquyUeXgRAhM-1">
          <mxGeometry width="50" height="50" relative="1" as="geometry">
            <mxPoint x="-490" y="390" as="sourcePoint" />
            <mxPoint x="-440" y="340" as="targetPoint" />
          </mxGeometry>
        </mxCell>
        <mxCell id="u9sHfeIDGquyUeXgRAhM-113" value="" style="endArrow=none;html=1;rounded=0;entryX=0;entryY=1;entryDx=0;entryDy=0;" edge="1" parent="1" target="u9sHfeIDGquyUeXgRAhM-7">
          <mxGeometry width="50" height="50" relative="1" as="geometry">
            <mxPoint x="-490" y="420" as="sourcePoint" />
            <mxPoint x="-440" y="370" as="targetPoint" />
          </mxGeometry>
        </mxCell>
        <mxCell id="u9sHfeIDGquyUeXgRAhM-114" value="" style="endArrow=none;html=1;rounded=0;entryX=0;entryY=0.5;entryDx=0;entryDy=0;" edge="1" parent="1" target="u9sHfeIDGquyUeXgRAhM-8">
          <mxGeometry width="50" height="50" relative="1" as="geometry">
            <mxPoint x="-490" y="440" as="sourcePoint" />
            <mxPoint x="-440" y="390" as="targetPoint" />
          </mxGeometry>
        </mxCell>
        <mxCell id="u9sHfeIDGquyUeXgRAhM-115" value="" style="endArrow=none;html=1;rounded=0;exitX=0.5;exitY=1;exitDx=0;exitDy=0;entryX=0.46;entryY=-0.054;entryDx=0;entryDy=0;entryPerimeter=0;" edge="1" parent="1" source="u9sHfeIDGquyUeXgRAhM-32" target="u9sHfeIDGquyUeXgRAhM-26">
          <mxGeometry width="50" height="50" relative="1" as="geometry">
            <mxPoint x="-550" y="580" as="sourcePoint" />
            <mxPoint x="-500" y="530" as="targetPoint" />
          </mxGeometry>
        </mxCell>
        <mxCell id="u9sHfeIDGquyUeXgRAhM-116" value="" style="endArrow=none;html=1;rounded=0;exitX=0.5;exitY=1;exitDx=0;exitDy=0;entryX=0.5;entryY=0;entryDx=0;entryDy=0;" edge="1" parent="1" target="u9sHfeIDGquyUeXgRAhM-32">
          <mxGeometry width="50" height="50" relative="1" as="geometry">
            <mxPoint x="-555.26" y="449" as="sourcePoint" />
            <mxPoint x="-555.26" y="517" as="targetPoint" />
          </mxGeometry>
        </mxCell>
        <mxCell id="u9sHfeIDGquyUeXgRAhM-117" value="" style="endArrow=none;html=1;rounded=0;entryX=0;entryY=1;entryDx=0;entryDy=0;exitX=0.5;exitY=0;exitDx=0;exitDy=0;" edge="1" parent="1" source="u9sHfeIDGquyUeXgRAhM-42" target="u9sHfeIDGquyUeXgRAhM-26">
          <mxGeometry width="50" height="50" relative="1" as="geometry">
            <mxPoint x="-750" y="730" as="sourcePoint" />
            <mxPoint x="-700" y="680" as="targetPoint" />
            <Array as="points">
              <mxPoint x="-610" y="730" />
            </Array>
          </mxGeometry>
        </mxCell>
        <mxCell id="u9sHfeIDGquyUeXgRAhM-118" value="" style="endArrow=none;html=1;rounded=0;exitX=0.5;exitY=1;exitDx=0;exitDy=0;entryX=0.321;entryY=-0.05;entryDx=0;entryDy=0;entryPerimeter=0;" edge="1" parent="1" source="u9sHfeIDGquyUeXgRAhM-42" target="u9sHfeIDGquyUeXgRAhM-33">
          <mxGeometry width="50" height="50" relative="1" as="geometry">
            <mxPoint x="-750" y="800" as="sourcePoint" />
            <mxPoint x="-700" y="750" as="targetPoint" />
            <Array as="points">
              <mxPoint x="-861" y="800" />
            </Array>
          </mxGeometry>
        </mxCell>
        <mxCell id="u9sHfeIDGquyUeXgRAhM-119" value="" style="endArrow=none;html=1;rounded=0;entryX=0.789;entryY=1.025;entryDx=0;entryDy=0;entryPerimeter=0;exitX=0.5;exitY=0;exitDx=0;exitDy=0;" edge="1" parent="1" source="u9sHfeIDGquyUeXgRAhM-51" target="u9sHfeIDGquyUeXgRAhM-1">
          <mxGeometry width="50" height="50" relative="1" as="geometry">
            <mxPoint x="-330" y="510" as="sourcePoint" />
            <mxPoint x="-280" y="460" as="targetPoint" />
            <Array as="points">
              <mxPoint x="-515" y="510" />
            </Array>
          </mxGeometry>
        </mxCell>
        <mxCell id="u9sHfeIDGquyUeXgRAhM-120" value="" style="endArrow=none;html=1;rounded=0;entryX=1.011;entryY=-0.062;entryDx=0;entryDy=0;entryPerimeter=0;exitX=0.5;exitY=1;exitDx=0;exitDy=0;" edge="1" parent="1" source="u9sHfeIDGquyUeXgRAhM-51" target="u9sHfeIDGquyUeXgRAhM-49">
          <mxGeometry width="50" height="50" relative="1" as="geometry">
            <mxPoint x="-330" y="580" as="sourcePoint" />
            <mxPoint x="-280" y="530" as="targetPoint" />
            <Array as="points">
              <mxPoint x="-335" y="648" />
            </Array>
          </mxGeometry>
        </mxCell>
        <mxCell id="u9sHfeIDGquyUeXgRAhM-121" value="" style="endArrow=none;html=1;rounded=0;entryX=0.5;entryY=0;entryDx=0;entryDy=0;" edge="1" parent="1" target="u9sHfeIDGquyUeXgRAhM-122">
          <mxGeometry width="50" height="50" relative="1" as="geometry">
            <mxPoint x="-840" y="850" as="sourcePoint" />
            <mxPoint x="-610.1799999999998" y="955.9100000000001" as="targetPoint" />
            <Array as="points">
              <mxPoint x="-840" y="820" />
              <mxPoint x="-615" y="820" />
            </Array>
          </mxGeometry>
        </mxCell>
        <mxCell id="u9sHfeIDGquyUeXgRAhM-122" value="" style="rhombus;whiteSpace=wrap;html=1;" vertex="1" parent="1">
          <mxGeometry x="-650" y="960" width="70" height="70" as="geometry" />
        </mxCell>
        <mxCell id="u9sHfeIDGquyUeXgRAhM-123" value="" style="endArrow=none;html=1;rounded=0;exitX=0.5;exitY=1;exitDx=0;exitDy=0;entryX=0.333;entryY=1;entryDx=0;entryDy=0;entryPerimeter=0;" edge="1" parent="1" source="u9sHfeIDGquyUeXgRAhM-122" target="u9sHfeIDGquyUeXgRAhM-10">
          <mxGeometry width="50" height="50" relative="1" as="geometry">
            <mxPoint x="-610" y="1030" as="sourcePoint" />
            <mxPoint x="-560" y="980" as="targetPoint" />
            <Array as="points">
              <mxPoint x="-410" y="1030" />
              <mxPoint x="-390" y="890" />
            </Array>
          </mxGeometry>
        </mxCell>
        <mxCell id="u9sHfeIDGquyUeXgRAhM-124" value="" style="endArrow=none;html=1;rounded=0;entryX=0.5;entryY=0;entryDx=0;entryDy=0;" edge="1" parent="1" target="u9sHfeIDGquyUeXgRAhM-64">
          <mxGeometry width="50" height="50" relative="1" as="geometry">
            <mxPoint x="-330" y="890" as="sourcePoint" />
            <mxPoint x="-280" y="840" as="targetPoint" />
            <Array as="points">
              <mxPoint x="-330" y="950" />
            </Array>
          </mxGeometry>
        </mxCell>
        <mxCell id="u9sHfeIDGquyUeXgRAhM-125" value="" style="endArrow=none;html=1;rounded=0;exitX=0.5;exitY=1;exitDx=0;exitDy=0;entryX=0;entryY=1;entryDx=0;entryDy=0;entryPerimeter=0;" edge="1" parent="1" source="u9sHfeIDGquyUeXgRAhM-64" target="u9sHfeIDGquyUeXgRAhM-53">
          <mxGeometry width="50" height="50" relative="1" as="geometry">
            <mxPoint x="-120" y="1020" as="sourcePoint" />
            <mxPoint x="-70" y="970" as="targetPoint" />
            <Array as="points">
              <mxPoint x="30" y="1020" />
            </Array>
          </mxGeometry>
        </mxCell>
        <mxCell id="u9sHfeIDGquyUeXgRAhM-126" value="" style="endArrow=none;html=1;rounded=0;entryX=0.5;entryY=0;entryDx=0;entryDy=0;exitX=0.578;exitY=1;exitDx=0;exitDy=0;exitPerimeter=0;" edge="1" parent="1" source="u9sHfeIDGquyUeXgRAhM-43" target="u9sHfeIDGquyUeXgRAhM-63">
          <mxGeometry width="50" height="50" relative="1" as="geometry">
            <mxPoint x="-120" y="690" as="sourcePoint" />
            <mxPoint x="-70" y="640" as="targetPoint" />
          </mxGeometry>
        </mxCell>
        <mxCell id="u9sHfeIDGquyUeXgRAhM-127" value="" style="endArrow=none;html=1;rounded=0;entryX=0;entryY=0.5;entryDx=0;entryDy=0;exitX=0.5;exitY=1;exitDx=0;exitDy=0;" edge="1" parent="1" source="u9sHfeIDGquyUeXgRAhM-63" target="u9sHfeIDGquyUeXgRAhM-53">
          <mxGeometry width="50" height="50" relative="1" as="geometry">
            <mxPoint x="-110" y="850" as="sourcePoint" />
            <mxPoint x="-60" y="800" as="targetPoint" />
            <Array as="points">
              <mxPoint x="-110" y="890" />
            </Array>
          </mxGeometry>
        </mxCell>
        <mxCell id="u9sHfeIDGquyUeXgRAhM-128" value="1...1" style="text;html=1;align=center;verticalAlign=middle;resizable=0;points=[];autosize=1;strokeColor=none;fillColor=none;" vertex="1" parent="1">
          <mxGeometry x="-85" y="798" width="50" height="30" as="geometry" />
        </mxCell>
        <mxCell id="u9sHfeIDGquyUeXgRAhM-129" value="M...M" style="text;html=1;align=center;verticalAlign=middle;resizable=0;points=[];autosize=1;strokeColor=none;fillColor=none;" vertex="1" parent="1">
          <mxGeometry x="-96" y="970" width="50" height="30" as="geometry" />
        </mxCell>
        <mxCell id="u9sHfeIDGquyUeXgRAhM-130" value="1...M" style="text;html=1;align=center;verticalAlign=middle;resizable=0;points=[];autosize=1;strokeColor=none;fillColor=none;" vertex="1" parent="1">
          <mxGeometry x="-835" y="750" width="50" height="30" as="geometry" />
        </mxCell>
      </root>
    </mxGraphModel>
  </diagram>
</mxfile>
